PathFileType	4	(X/Y/Z)	C:\Users\Basilio\Documents\Thesis Gigler\squatting_fais\c3dfiles\077\SLS_front_pre3\markers_experimental.trc
DataRate	CameraRate	NumFrames	NumMarkers	Units	OrigDataRate	OrigDataStartFrame	OrigNumFrames
200.000000	200.000000	4	60	mm	200.000000	1282	1466
Frame#	Time	FHD			LBHD			RBHD			C7			T10			CLAV			LSHO			LUUPA			LMUPA			LDUPA			LLEP			LMEP			LRAD			LUL			LRFIN			RSHO			RUPA1			RMUPA			RDUPA			RLEP			RMEP			RUL			RUFIN			LASI			RASI			USACR			LSACR			RSACR			LTHI1			LTHI2			LTHI3			LTHI4			LLFC			LMFC			LTIB1			LTIB2			LTIB3			LTIB4			LLMAL			LHEE			LMT1			LMT2			LMT5			RTHI			RTHI2			RTHI3			RTHI4			RLFC			RMFC			RTIB1			RTIB2			RTIB3			RTIB4			RLMAL			RMMAL			RHEE			RMT1			RMT2			RMT5			RRAD			
		X1	Y1	Z1	X2	Y2	Z2	X3	Y3	Z3	X4	Y4	Z4	X5	Y5	Z5	X6	Y6	Z6	X7	Y7	Z7	X8	Y8	Z8	X9	Y9	Z9	X10	Y10	Z10	X11	Y11	Z11	X12	Y12	Z12	X13	Y13	Z13	X14	Y14	Z14	X15	Y15	Z15	X16	Y16	Z16	X17	Y17	Z17	X18	Y18	Z18	X19	Y19	Z19	X20	Y20	Z20	X21	Y21	Z21	X22	Y22	Z22	X23	Y23	Z23	X24	Y24	Z24	X25	Y25	Z25	X26	Y26	Z26	X27	Y27	Z27	X28	Y28	Z28	X29	Y29	Z29	X30	Y30	Z30	X31	Y31	Z31	X32	Y32	Z32	X33	Y33	Z33	X34	Y34	Z34	X35	Y35	Z35	X36	Y36	Z36	X37	Y37	Z37	X38	Y38	Z38	X39	Y39	Z39	X40	Y40	Z40	X41	Y41	Z41	X42	Y42	Z42	X43	Y43	Z43	X44	Y44	Z44	X45	Y45	Z45	X46	Y46	Z46	X47	Y47	Z47	X48	Y48	Z48	X49	Y49	Z49	X50	Y50	Z50	X51	Y51	Z51	X52	Y52	Z52	X53	Y53	Z53	X54	Y54	Z54	X55	Y55	Z55	X56	Y56	Z56	X57	Y57	Z57	X58	Y58	Z58	X59	Y59	Z59	X60	Y60	Z60	

1283	6.41	-116.3470001220703	1759.459228515625	-1043.371337890625	-280.3443298339844	1751.459350585938	-1139.408325195313	-309.3783264160157	1753.458251953125	-998.375671386719	-409.1557006835939	1615.781860351563	-1081.724487304688	-445.5657653808595	1272.151245117188	-1051.393188476563	-258.2511596679688	1541.369262695313	-1069.697509765625	-272.8028564453126	1565.44921875	-1251.76123046875	-134.6883850097657	1431.220947265625	-1347.930053710938	-94.4207000732422	1451.475830078125	-1327.001586914063	-73.42247009277345	1401.319702148438	-1354.912475585938	-9.543844223022463	1381.986572265625	-1352.309692382813	-28.10116195678712	1320.555908203125	-1312.03955078125	271.5256958007813	1339.916015625	-1213.679321289063	277.3447265625001	1323.455688476563	-1291.995239257813	368.2639160156251	1337.21630859375	-1219.305053710938	-279.7518615722657	1574.700317382813	-902.0382080078127	-152.7544403076172	1487.548095703125	-774.7244873046877	-114.416259765625	1499.090454101563	-803.4368896484377	-88.21447753906251	1462.700439453125	-761.8286743164064	-24.21333694458009	1443.232666015625	-758.1574096679689	-39.98009490966798	1370.906860351563	-786.8079833984377	268.2338562011719	1390.864868164063	-780.0351562500002	353.2436218261719	1390.902221679688	-857.8640747070315	-264.1930541992188	1064.190673828125	-1167.96826171875	-279.8620300292969	1103.925048828125	-893.090515136719	-462.305877685547	1161.572875976563	-1038.688598632813	-468.453826904297	1131.709838867188	-1065.970703125	-475.0471191406251	1130.83544921875	-1010.902770996094	-321.9897766113282	845.271667480469	-1203.008422851563	-289.5877990722657	767.7571411132814	-1196.239135742188	-240.3045806884766	771.9141845703127	-1197.395263671875	-313.6150512695313	717.0034179687501	-1174.161743164063	-280.5300903320313	570.1889648437501	-1143.9970703125	-263.6434020996094	559.6685180664064	-1011.587646484375	-260.1026916503907	350.6492309570313	-1054.873779296875	-294.7830200195313	302.6234436035157	-1122.250854492188	-263.8374023437501	300.7158813476563	-1086.273193359375	-278.8314514160157	225.9508361816407	-1048.998413085938	-350.4725036621094	109.840072631836	-1079.226806640625	-405.5292968750001	81.19507598876955	-1024.848510742188	-194.1566772460938	54.32481384277345	-1010.748596191406	-190.2391510009766	56.36168289184572	-1053.105834960938	-320.6221008300782	127.4639358520508	-997.1621704101565	-136.9247131347657	830.2944335937502	-846.2274169921877	-71.69677734375001	819.041442871094	-856.3763427734377	-49.76778030395509	842.8665161132815	-865.2420043945315	-39.19516754150391	743.7113037109376	-872.4960937500002	-0.7617778778076174	690.5857543945314	-879.4614257812502	15.34427165985108	697.4770507812501	-1008.462097167969	107.9701080322266	596.7455444335939	-910.1480712890627	94.2310256958008	496.4594726562501	-877.6773681640627	130.4401245117188	513.3801879882814	-902.3657226562502	150.9145202636719	478.5423889160157	-945.793884277344	187.087890625	286.3410644531251	-912.644470214844	194.5206604003907	310.1545715332032	-1000.845642089844	154.3432312011719	214.2918090820313	-968.5943603515627	341.0902099609376	347.0996704101563	-975.6475830078127	341.7276000976563	343.1804199218751	-937.518493652344	344.8348693847657	310.2547302246094	-892.9389648437502	256.7614746093751	1388.519897460938	-860.0761718750002	
1284	6.415	-114.1563186645508	1756.935668945313	-1043.054321289063	-277.6221313476563	1750.615478515625	-1139.2890625	-307.1522521972657	1753.1171875	-998.307312011719	-408.4029235839845	1616.455444335938	-1081.7626953125	-445.581024169922	1272.268432617188	-1051.465576171875	-258.1733703613282	1540.816528320313	-1069.83056640625	-272.6612548828126	1565.099487304688	-1252.197387695313	-136.9251098632813	1428.030517578125	-1348.882568359375	-95.84811401367189	1447.686157226563	-1328.236206054688	-76.10880279541017	1396.947509765625	-1355.99462890625	-12.26451683044434	1377.371704101563	-1354.823974609375	-31.58329391479493	1315.3974609375	-1313.730102539063	268.0244445800782	1329.822875976563	-1215.301147460938	273.6361999511719	1313.442260742188	-1293.724365234375	364.0581359863282	1325.09423828125	-1220.334350585938	-279.3145446777344	1574.219970703125	-901.8248291015627	-153.7799377441407	1484.966186523438	-773.728454589844	-115.1164321899414	1495.978393554688	-802.2053833007815	-89.65300750732423	1459.398193359375	-760.3265991210939	-25.97647285461426	1438.823608398438	-756.0975952148439	-42.52976989746094	1366.743286132813	-784.620544433594	265.9102172851563	1382.410034179688	-777.6616210937502	350.4824829101563	1382.1337890625	-855.650329589844	-264.4115600585938	1064.05419921875	-1167.915893554688	-280.0376586914063	1104.041137695313	-892.9983520507815	-462.471649169922	1161.583129882813	-1038.666137695313	-468.6470031738282	1131.75830078125	-1065.900268554688	-475.140838623047	1130.887084960938	-1010.884643554688	-321.9111022949219	845.0866699218752	-1202.874145507813	-289.7567749023438	767.7661743164064	-1196.15576171875	-240.5562133789063	771.8735351562502	-1197.287963867188	-313.8699340820313	716.9893798828126	-1174.046508789063	-280.8080139160157	570.1749877929689	-1143.961303710938	-263.9819335937501	559.5640258789064	-1011.467590332031	-260.2490539550782	350.6542663574219	-1054.739013671875	-294.8295898437501	302.6173400878907	-1122.089477539063	-263.8898315429688	300.8092346191407	-1086.1171875	-278.8699645996094	225.8661041259766	-1048.841918945313	-350.4495544433594	109.6676635742188	-1079.177978515625	-405.514373779297	81.13372039794923	-1024.819213867188	-193.9512329101563	54.52257156372072	-1010.666564941406	-190.2208404541016	56.33324050903322	-1053.08349609375	-320.6510314941407	127.4753570556641	-997.0563964843752	-137.5867004394532	829.8228149414065	-846.3026123046877	-72.29561614990236	818.5590820312502	-856.3816528320315	-50.14204406738283	842.441589355469	-865.185974121094	-39.88398742675782	743.3495483398439	-872.3183593750002	-1.613000392913819	689.9827270507814	-879.2656860351565	14.76139831542969	696.9459228515626	-1008.467956542969	107.0489883422852	596.1817016601564	-909.9323730468752	93.20858764648439	495.8096618652345	-877.4661865234377	129.4301147460938	512.5609741210939	-902.149841308594	149.8418579101563	477.7322387695314	-945.645202636719	185.8284301757813	285.5294189453126	-912.3621826171877	192.9537506103516	309.0267028808594	-1000.747741699219	153.0314331054688	213.5209045410157	-968.4697875976565	339.9338073730469	346.4263000488282	-975.4287109375002	339.6592712402344	340.9653930664063	-936.927917480469	343.5931701660157	309.3767395019532	-892.6539306640627	254.3184509277344	1379.585205078125	-857.8300781250002	
1285	6.42	-111.5993957519532	1753.959106445313	-1042.612182617188	-275.3947143554688	1750.01220703125	-1139.368408203125	-305.0549926757813	1752.894409179688	-998.1477661132815	-407.4700317382814	1617.3486328125	-1081.712768554688	-445.7486877441407	1272.29541015625	-1051.5341796875	-257.9975280761719	1540.469848632813	-1069.8115234375	-272.5541076660157	1564.597900390625	-1252.566040039063	-138.8522186279297	1424.936157226563	-1349.790283203125	-97.3920822143555	1443.60888671875	-1329.60498046875	-78.71010589599611	1392.608032226563	-1357.46142578125	-14.7108211517334	1372.03271484375	-1356.646484375	-35.12386322021485	1310.163940429688	-1315.551391601563	264.0697937011719	1319.656982421875	-1216.687255859375	269.7603454589844	1303.134399414063	-1295.091430664063	360.4573059082032	1313.815063476563	-1222.265380859375	-278.8910522460938	1573.71533203125	-901.5916748046877	-154.7422637939453	1482.313354492188	-772.5813598632815	-115.8494338989258	1492.641235351563	-800.9769287109377	-91.15364837646486	1455.91943359375	-758.8656005859376	-27.84088897705079	1434.1474609375	-754.0012207031251	-45.38608551025391	1362.064697265625	-782.419128417969	263.1645507812501	1374.005126953125	-775.2774047851565	347.6004943847657	1372.533935546875	-853.2202148437502	-264.7553710937501	1063.99072265625	-1167.943359375	-280.1990051269532	1103.97802734375	-892.920104980469	-462.6250915527345	1161.678466796875	-1038.656860351563	-468.8995361328126	1131.86962890625	-1065.84619140625	-475.3414916992189	1130.95166015625	-1010.864868164063	-322.2911071777344	845.0872192382815	-1202.701049804688	-289.8772277832032	767.6162719726564	-1196.082763671875	-240.6918182373047	771.823425292969	-1197.164916992188	-314.1375122070313	716.9808349609376	-1174.013916015625	-280.8726196289063	570.1223144531251	-1143.884399414063	-264.1911010742188	559.5336303710939	-1011.343994140625	-260.3207702636719	350.6073913574219	-1054.599731445313	-294.8213500976563	302.5584716796876	-1121.967651367188	-263.9460754394532	300.8322753906251	-1085.9794921875	-278.8982543945313	225.8961639404297	-1048.666381835938	-350.4017944335938	109.6865844726563	-1079.113647460938	-405.509979248047	81.09838104248048	-1024.778198242188	-193.9709777832032	54.4802589416504	-1010.640686035156	-190.1523895263672	56.30941390991212	-1053.045288085938	-320.6613769531251	127.4704513549805	-996.9476318359377	-138.1922607421875	829.5849609375002	-846.2789306640627	-73.03399658203126	817.9495239257815	-856.4554443359377	-50.74115371704103	841.9616699218752	-865.118835449219	-40.70612716674805	742.7346191406251	-872.300476074219	-2.391408681869507	689.3956298828126	-879.1944580078127	13.40329360961914	696.2886352539064	-1008.318420410156	105.9840316772461	595.4718017578126	-909.750671386719	92.20628356933595	495.1190795898439	-877.414001464844	128.4450836181641	511.9855957031251	-901.960388183594	148.9940032958985	476.9694824218751	-945.3811645507815	184.5266571044922	284.6088562011719	-912.1313476562502	191.7912750244141	308.2634582519532	-1000.505859375	151.6484527587891	212.7742004394532	-968.0776367187502	338.5486145019532	345.1119689941407	-975.057800292969	338.4730224609376	339.8675231933594	-936.9514770507815	342.2658691406251	308.3861083984376	-892.453796386719	251.9433746337891	1370.896362304688	-855.513610839844	
1286	6.425	-109.4016342163086	1751.302124023438	-1042.197509765625	-272.9398803710938	1749.525634765625	-1139.18701171875	-302.9316101074219	1752.730834960938	-998.1304931640627	-406.4047241210939	1617.88720703125	-1081.823974609375	-445.9036560058595	1272.374389648438	-1051.529296875	-257.5165710449219	1540.119506835938	-1069.799926757813	-272.1435852050782	1564.0322265625	-1252.828369140625	-140.4612426757813	1421.464477539063	-1350.60791015625	-98.78298187255862	1439.699951171875	-1330.890380859375	-81.34471893310548	1388.184448242188	-1359.017944335938	-17.70232963562012	1366.886840820313	-1358.395385742188	-39.0345573425293	1304.868896484375	-1317.114379882813	260.1088256835938	1309.040405273438	-1218.353393554688	265.5214843750001	1293.058715820313	-1296.927368164063	356.0736083984376	1301.572875976563	-1223.726806640625	-278.3003540039063	1573.135375976563	-901.246032714844	-155.8824462890625	1479.470581054688	-771.5669555664065	-116.6670913696289	1489.27001953125	-799.7810058593752	-92.9069290161133	1452.159057617188	-757.3308715820314	-29.79875946044923	1429.570678710938	-751.8622436523439	-48.2886199951172	1357.458374023438	-780.4699707031252	260.4411010742188	1364.494506835938	-773.0284423828127	344.6776123046876	1361.686279296875	-851.213806152344	-264.7692260742188	1063.856079101563	-1167.856811523438	-280.3968505859376	1103.931518554688	-892.852722167969	-462.735565185547	1161.731567382813	-1038.665649414063	-469.063446044922	1131.8642578125	-1065.835571289063	-475.4815673828126	1131.071899414063	-1010.871276855469	-322.3132324218751	844.9615478515627	-1202.72802734375	-289.9662475585938	767.5928955078126	-1196.001220703125	-240.8699951171876	771.8518066406252	-1197.14453125	-314.3004760742188	716.9725952148439	-1173.89453125	-280.8725280761719	570.0481567382814	-1143.705444335938	-264.3841552734376	559.5297241210939	-1011.205871582031	-260.4491271972657	350.6357727050782	-1054.496337890625	-294.6863403320313	302.5307617187501	-1121.88037109375	-263.9753417968751	300.7856445312501	-1085.797729492188	-278.9273071289063	225.8375244140626	-1048.5791015625	-350.3335571289063	109.6390457153321	-1079.064819335938	-405.516082763672	81.13989257812501	-1024.767211914063	-194.1423492431641	54.38780593872072	-1010.629821777344	-190.147705078125	56.21651458740236	-1053.015625	-320.7032775878907	127.3819885253907	-996.8523559570315	-138.787338256836	829.2486572265627	-846.186218261719	-73.74877166748048	817.4561157226565	-856.403259277344	-51.41965484619142	841.4749145507815	-865.099060058594	-41.61985015869141	742.0218505859376	-872.2375488281252	-3.23990297317505	688.8232421875001	-879.1778564453127	12.31517314910889	695.4460449218751	-1008.116027832031	104.7969665527344	594.4188232421876	-909.741394042969	91.05722045898439	494.4141540527345	-877.2287597656252	127.2872009277344	511.1392517089845	-901.739929199219	147.9179992675782	476.0422668457032	-945.008972167969	183.2957000732422	283.7760314941407	-911.9167480468752	190.899887084961	307.2432250976563	-1000.258605957031	150.2157592773438	211.9400787353516	-967.9504394531252	337.3821105957032	344.2775878906251	-974.8645019531252	337.9906311035157	339.5879516601563	-936.7932739257815	340.9740905761719	307.3206176757813	-892.2386474609377	249.0712585449219	1362.930419921875	-853.2451171875002	
